<svg id="visual" viewBox="0 0 1080 150" width="1080" height="150" xmlns="http://www.w3.org/2000/svg" xmlns:xlink="http://www.w3.org/1999/xlink" version="1.1"><rect x="0" y="0" width="1080" height="150" fill="#2D2D2D"></rect><path d="M0 47L25.7 51C51.3 55 102.7 63 154.2 67C205.7 71 257.3 71 308.8 68.7C360.3 66.3 411.7 61.7 463 55C514.3 48.3 565.7 39.7 617 39.8C668.3 40 719.7 49 771.2 49.7C822.7 50.3 874.3 42.7 925.8 39.3C977.3 36 1028.7 37 1054.3 37.5L1080 38L1080 151L1054.3 151C1028.7 151 977.3 151 925.8 151C874.3 151 822.7 151 771.2 151C719.7 151 668.3 151 617 151C565.7 151 514.3 151 463 151C411.7 151 360.3 151 308.8 151C257.3 151 205.7 151 154.2 151C102.7 151 51.3 151 25.7 151L0 151Z" fill="#3a4d39"></path><path d="M0 75L25.7 74C51.3 73 102.7 71 154.2 70.5C205.7 70 257.3 71 308.8 74.8C360.3 78.7 411.7 85.3 463 85.7C514.3 86 565.7 80 617 74.5C668.3 69 719.7 64 771.2 61.3C822.7 58.7 874.3 58.3 925.8 60C977.3 61.7 1028.7 65.3 1054.3 67.2L1080 69L1080 151L1054.3 151C1028.7 151 977.3 151 925.8 151C874.3 151 822.7 151 771.2 151C719.7 151 668.3 151 617 151C565.7 151 514.3 151 463 151C411.7 151 360.3 151 308.8 151C257.3 151 205.7 151 154.2 151C102.7 151 51.3 151 25.7 151L0 151Z" fill="#3d6f41"></path><path d="M0 110L25.7 106.2C51.3 102.3 102.7 94.7 154.2 92.8C205.7 91 257.3 95 308.8 98C360.3 101 411.7 103 463 105C514.3 107 565.7 109 617 106.2C668.3 103.3 719.7 95.7 771.2 93C822.7 90.3 874.3 92.7 925.8 95C977.3 97.3 1028.7 99.7 1054.3 100.8L1080 102L1080 151L1054.3 151C1028.7 151 977.3 151 925.8 151C874.3 151 822.7 151 771.2 151C719.7 151 668.3 151 617 151C565.7 151 514.3 151 463 151C411.7 151 360.3 151 308.8 151C257.3 151 205.7 151 154.2 151C102.7 151 51.3 151 25.7 151L0 151Z" fill="#38934a"></path><path d="M0 124L25.7 124C51.3 124 102.7 124 154.2 124.5C205.7 125 257.3 126 308.8 125C360.3 124 411.7 121 463 121C514.3 121 565.7 124 617 126C668.3 128 719.7 129 771.2 127.2C822.7 125.3 874.3 120.7 925.8 120.5C977.3 120.3 1028.7 124.7 1054.3 126.8L1080 129L1080 151L1054.3 151C1028.7 151 977.3 151 925.8 151C874.3 151 822.7 151 771.2 151C719.7 151 668.3 151 617 151C565.7 151 514.3 151 463 151C411.7 151 360.3 151 308.8 151C257.3 151 205.7 151 154.2 151C102.7 151 51.3 151 25.7 151L0 151Z" fill="#1db954"></path></svg>