<svg id="visual" viewBox="0 0 390 300" width="390" height="300" xmlns="http://www.w3.org/2000/svg" xmlns:xlink="http://www.w3.org/1999/xlink" version="1.1"><rect x="0" y="0" width="390" height="300" fill="#2D2D2D"></rect><path d="M0 197L9.3 201C18.7 205 37.3 213 55.8 217C74.3 221 92.7 221 111.2 218.7C129.7 216.3 148.3 211.7 167 205C185.7 198.3 204.3 189.7 223 189.8C241.7 190 260.3 199 278.8 199.7C297.3 200.3 315.7 192.7 334.2 189.3C352.7 186 371.3 187 380.7 187.5L390 188L390 301L380.7 301C371.3 301 352.7 301 334.2 301C315.7 301 297.3 301 278.8 301C260.3 301 241.7 301 223 301C204.3 301 185.7 301 167 301C148.3 301 129.7 301 111.2 301C92.7 301 74.3 301 55.8 301C37.3 301 18.7 301 9.3 301L0 301Z" fill="#3a4d39"></path><path d="M0 225L9.3 224C18.7 223 37.3 221 55.8 220.5C74.3 220 92.7 221 111.2 224.8C129.7 228.7 148.3 235.3 167 235.7C185.7 236 204.3 230 223 224.5C241.7 219 260.3 214 278.8 211.3C297.3 208.7 315.7 208.3 334.2 210C352.7 211.7 371.3 215.3 380.7 217.2L390 219L390 301L380.7 301C371.3 301 352.7 301 334.2 301C315.7 301 297.3 301 278.8 301C260.3 301 241.7 301 223 301C204.3 301 185.7 301 167 301C148.3 301 129.7 301 111.2 301C92.7 301 74.3 301 55.8 301C37.3 301 18.7 301 9.3 301L0 301Z" fill="#3d6f41"></path><path d="M0 260L9.3 256.2C18.7 252.3 37.3 244.7 55.8 242.8C74.3 241 92.7 245 111.2 248C129.7 251 148.3 253 167 255C185.7 257 204.3 259 223 256.2C241.7 253.3 260.3 245.7 278.8 243C297.3 240.3 315.7 242.7 334.2 245C352.7 247.3 371.3 249.7 380.7 250.8L390 252L390 301L380.7 301C371.3 301 352.7 301 334.2 301C315.7 301 297.3 301 278.8 301C260.3 301 241.7 301 223 301C204.3 301 185.7 301 167 301C148.3 301 129.7 301 111.2 301C92.7 301 74.3 301 55.8 301C37.3 301 18.7 301 9.3 301L0 301Z" fill="#38934a"></path><path d="M0 274L9.3 274C18.7 274 37.3 274 55.8 274.5C74.3 275 92.7 276 111.2 275C129.7 274 148.3 271 167 271C185.7 271 204.3 274 223 276C241.7 278 260.3 279 278.8 277.2C297.3 275.3 315.7 270.7 334.2 270.5C352.7 270.3 371.3 274.7 380.7 276.8L390 279L390 301L380.7 301C371.3 301 352.7 301 334.2 301C315.7 301 297.3 301 278.8 301C260.3 301 241.7 301 223 301C204.3 301 185.7 301 167 301C148.3 301 129.7 301 111.2 301C92.7 301 74.3 301 55.8 301C37.3 301 18.7 301 9.3 301L0 301Z" fill="#1db954"></path></svg>