<svg id="visual" viewBox="0 0 1080 300" width="1080" height="300" xmlns="http://www.w3.org/2000/svg" xmlns:xlink="http://www.w3.org/1999/xlink" version="1.1"><rect x="0" y="0" width="1080" height="300" fill="#FFFFFF"></rect><path d="M0 185L36 181C72 177 144 169 216 175.8C288 182.7 360 204.3 432 206.3C504 208.3 576 190.7 648 172.2C720 153.7 792 134.3 864 134.8C936 135.3 1008 155.7 1044 165.8L1080 176L1080 301L1044 301C1008 301 936 301 864 301C792 301 720 301 648 301C576 301 504 301 432 301C360 301 288 301 216 301C144 301 72 301 36 301L0 301Z" fill="#1DB954" stroke-linecap="round" stroke-linejoin="miter"></path></svg>