<svg id="visual" viewBox="0 0 390 300" width="390" height="300" xmlns="http://www.w3.org/2000/svg" xmlns:xlink="http://www.w3.org/1999/xlink" version="1.1"><rect x="0" y="0" width="390" height="300" fill="#FFFFFF"></rect><path d="M0 185L13 181C26 177 52 169 78 175.8C104 182.7 130 204.3 156 206.3C182 208.3 208 190.7 234 172.2C260 153.7 286 134.3 312 134.8C338 135.3 364 155.7 377 165.8L390 176L390 301L377 301C364 301 338 301 312 301C286 301 260 301 234 301C208 301 182 301 156 301C130 301 104 301 78 301C52 301 26 301 13 301L0 301Z" fill="#1DB954" stroke-linecap="round" stroke-linejoin="miter"></path></svg>